<svg width="32" height="32" viewBox="0 0 32 32" fill="none" xmlns="http://www.w3.org/2000/svg">
<path d="M9.68421 0C4.35064 0 0 4.35064 0 9.68421V22.3158C0 27.6486 4.35049 32 9.68421 32H22.3158C27.6488 32 32 27.6488 32 22.3158V9.68421C32 4.35049 27.6486 0 22.3158 0H9.68421ZM9.68421 2.52632H22.3158C26.2832 2.52632 29.4737 5.71603 29.4737 9.68421V22.3158C29.4737 26.283 26.283 29.4737 22.3158 29.4737H9.68421C5.71603 29.4737 2.52632 26.2832 2.52632 22.3158V9.68421C2.52632 5.71588 5.71588 2.52632 9.68421 2.52632ZM24.4211 5.89474C23.4905 5.89474 22.7368 6.64842 22.7368 7.57895C22.7368 8.50947 23.4905 9.26316 24.4211 9.26316C25.3516 9.26316 26.1053 8.50947 26.1053 7.57895C26.1053 6.64842 25.3516 5.89474 24.4211 5.89474ZM16 7.57895C11.3644 7.57895 7.57895 11.3644 7.57895 16C7.57895 20.6356 11.3644 24.4211 16 24.4211C20.6356 24.4211 24.4211 20.6356 24.4211 16C24.4211 11.3644 20.6356 7.57895 16 7.57895ZM16 10.1053C19.27 10.1053 21.8947 12.73 21.8947 16C21.8947 19.27 19.27 21.8947 16 21.8947C12.73 21.8947 10.1053 19.27 10.1053 16C10.1053 12.73 12.73 10.1053 16 10.1053Z" fill="#FA41FE"/>
</svg>
