<svg width="32" height="32" viewBox="0 0 32 32" fill="none" xmlns="http://www.w3.org/2000/svg">
<path d="M4.88889 0C2.20465 0 0 2.20465 0 4.88889V27.1111C0 29.7954 2.20465 32 4.88889 32H27.1111C29.7954 32 32 29.7954 32 27.1111V4.88889C32 2.20465 29.7954 0 27.1111 0H4.88889ZM4.88889 2.66667H27.1111C28.354 2.66667 29.3333 3.64602 29.3333 4.88889V27.1111C29.3333 28.354 28.354 29.3333 27.1111 29.3333H4.88889C3.64602 29.3333 2.66667 28.354 2.66667 27.1111V4.88889C2.66667 3.64602 3.64602 2.66667 4.88889 2.66667ZM8.44444 6.22222C7.85507 6.22222 7.28984 6.45635 6.8731 6.8731C6.45635 7.28984 6.22222 7.85507 6.22222 8.44444C6.22222 9.03381 6.45635 9.59905 6.8731 10.0158C7.28984 10.4325 7.85507 10.6667 8.44444 10.6667C9.03381 10.6667 9.59905 10.4325 10.0158 10.0158C10.4325 9.59905 10.6667 9.03381 10.6667 8.44444C10.6667 7.85507 10.4325 7.28984 10.0158 6.8731C9.59905 6.45635 9.03381 6.22222 8.44444 6.22222ZM7.11111 12.4444C6.61956 12.4444 6.22222 12.8418 6.22222 13.3333V24.8889C6.22222 25.3804 6.61956 25.7778 7.11111 25.7778H9.77778C10.2693 25.7778 10.6667 25.3804 10.6667 24.8889V13.3333C10.6667 12.8418 10.2693 12.4444 9.77778 12.4444H7.11111ZM13.3333 12.4444C12.8418 12.4444 12.4444 12.8418 12.4444 13.3333V24.8889C12.4444 25.3804 12.8418 25.7778 13.3333 25.7778H16C16.4916 25.7778 16.8889 25.3804 16.8889 24.8889V18.2222C16.8889 16.9964 17.8853 16 19.1111 16C20.3369 16 21.3333 16.9964 21.3333 18.2222V24.8889C21.3333 25.3804 21.7307 25.7778 22.2222 25.7778H24.8889C25.3804 25.7778 25.7778 25.3804 25.7778 24.8889V17.7778C25.7778 14.8364 23.3858 12.4444 20.4444 12.4444C19.0773 12.4444 17.8338 12.9653 16.8889 13.8142V13.3333C16.8889 12.8418 16.4916 12.4444 16 12.4444H13.3333Z" fill="#0A66C2"/>
</svg>
