<svg width="33" height="32" viewBox="0 0 33 32" fill="none" xmlns="http://www.w3.org/2000/svg">
<path d="M16.9786 0C11.1104 0 6.32461 4.31226 6.32461 9.59996V11.6C6.32477 11.8183 6.39106 12.0326 6.51635 12.2195C6.64163 12.4065 6.82115 12.5591 7.03558 12.6609C6.62424 13.3046 6.32461 14.0093 6.32461 14.7999V15.5999C6.32717 15.4393 6.29392 15.2799 6.22683 15.1311C6.15974 14.9823 6.06018 14.8471 5.93405 14.7336C5.80791 14.6201 5.65777 14.5305 5.49253 14.4703C5.32728 14.41 5.1503 14.3802 4.97205 14.3828C4.61915 14.3877 4.28287 14.5187 4.03707 14.7469C3.79127 14.9751 3.65605 15.282 3.66111 15.5999V29.5999H3.21719H2.32936C2.15288 29.5976 1.97767 29.627 1.81391 29.6863C1.65015 29.7456 1.5011 29.8336 1.37542 29.9453C1.24974 30.0569 1.14995 30.19 1.08183 30.3367C1.01371 30.4834 0.978636 30.6409 0.978636 30.7999C0.978636 30.9589 1.01371 31.1164 1.08183 31.2631C1.14995 31.4098 1.24974 31.5428 1.37542 31.6545C1.5011 31.7661 1.65015 31.8542 1.81391 31.9135C1.97767 31.9728 2.15288 32.0021 2.32936 31.9999H3.21719H4.99286H7.65637C7.83284 32.0021 8.00805 31.9728 8.17181 31.9135C8.33558 31.8542 8.48463 31.7661 8.61031 31.6545C8.73598 31.5428 8.83578 31.4098 8.90389 31.2631C8.97201 31.1164 9.00709 30.9589 9.00709 30.7999C9.00709 30.6409 8.97201 30.4834 8.90389 30.3367C8.83578 30.19 8.73598 30.0569 8.61031 29.9453C8.48463 29.8336 8.33558 29.7456 8.17181 29.6863C8.00805 29.627 7.83284 29.5976 7.65637 29.5999H6.32461V22.7999C6.32461 25.2157 8.52665 27.1999 11.2077 27.1999H12.9834C12.8069 27.1977 12.6317 27.227 12.4679 27.2863C12.3042 27.3456 12.1551 27.4337 12.0294 27.5453C11.9038 27.657 11.804 27.79 11.7359 27.9367C11.6677 28.0834 11.6327 28.2409 11.6327 28.3999C11.6327 28.5589 11.6677 28.7164 11.7359 28.8631C11.804 29.0098 11.9038 29.1428 12.0294 29.2545C12.1551 29.3661 12.3042 29.4542 12.4679 29.5135C12.6317 29.5728 12.8069 29.6021 12.9834 29.5999H20.9739C21.1504 29.6021 21.3256 29.5728 21.4893 29.5135C21.6531 29.4542 21.8022 29.3661 21.9278 29.2545C22.0535 29.1428 22.1533 29.0098 22.2214 28.8631C22.2895 28.7164 22.3246 28.5589 22.3246 28.3999C22.3246 28.2409 22.2895 28.0834 22.2214 27.9367C22.1533 27.79 22.0535 27.657 21.9278 27.5453C21.8022 27.4337 21.6531 27.3456 21.4893 27.2863C21.3256 27.227 21.1504 27.1977 20.9739 27.1999H22.7496C25.4306 27.1999 27.6327 25.2157 27.6327 22.7999V29.5999H26.3009C26.1244 29.5976 25.9492 29.627 25.7855 29.6863C25.6217 29.7456 25.4726 29.8336 25.347 29.9453C25.2213 30.0569 25.1215 30.19 25.0534 30.3367C24.9853 30.4834 24.9502 30.6409 24.9502 30.7999C24.9502 30.9589 24.9853 31.1164 25.0534 31.2631C25.1215 31.4098 25.2213 31.5428 25.347 31.6545C25.4726 31.7661 25.6217 31.8542 25.7855 31.9135C25.9492 31.9728 26.1244 32.0021 26.3009 31.9999H28.9644H30.7401H31.6279C31.8044 32.0021 31.9796 31.9728 32.1434 31.9135C32.3071 31.8542 32.4562 31.7661 32.5819 31.6545C32.7075 31.5428 32.8073 31.4098 32.8754 31.2631C32.9436 31.1164 32.9786 30.9589 32.9786 30.7999C32.9786 30.6409 32.9436 30.4834 32.8754 30.3367C32.8073 30.19 32.7075 30.0569 32.5819 29.9453C32.4562 29.8336 32.3071 29.7456 32.1434 29.6863C31.9796 29.627 31.8044 29.5976 31.6279 29.5999H30.7401H30.2962V15.5999C30.2987 15.4393 30.2655 15.2799 30.1984 15.1311C30.1313 14.9823 30.0317 14.8471 29.9056 14.7336C29.7795 14.6201 29.6293 14.5305 29.4641 14.4703C29.2988 14.41 29.1218 14.3802 28.9436 14.3828C28.5907 14.3877 28.2544 14.5187 28.0086 14.7469C27.7628 14.9751 27.6276 15.282 27.6327 15.5999V14.7999C27.6327 14.0093 27.333 13.3046 26.9217 12.6609C27.1361 12.5591 27.3156 12.4065 27.4409 12.2195C27.5662 12.0326 27.6325 11.8183 27.6327 11.6V9.59996C27.6327 4.31226 22.8469 0 16.9786 0ZM16.9786 2.39999C21.4075 2.39999 24.9692 5.6093 24.9692 9.59996V10.4H22.7496H16.0908V7.59997C16.0934 7.43936 16.0601 7.27992 15.993 7.1311C15.9259 6.98228 15.8264 6.84711 15.7002 6.7336C15.5741 6.6201 15.424 6.53056 15.2587 6.4703C15.0935 6.41004 14.9165 6.38028 14.7382 6.38279C14.3853 6.38776 14.0491 6.51874 13.8033 6.74696C13.5575 6.97518 13.4222 7.28198 13.4273 7.59997V10.4H11.2077H8.98812V9.59996C8.98812 5.6093 12.5498 2.39999 16.9786 2.39999ZM19.1982 6.39998C18.845 6.39998 18.5063 6.5264 18.2565 6.75145C18.0068 6.97649 17.8665 7.28171 17.8665 7.59997C17.8665 7.91823 18.0068 8.22345 18.2565 8.4485C18.5063 8.67354 18.845 8.79997 19.1982 8.79997C19.5514 8.79997 19.8902 8.67354 20.1399 8.4485C20.3897 8.22345 20.53 7.91823 20.53 7.59997C20.53 7.28171 20.3897 6.97649 20.1399 6.75145C19.8902 6.5264 19.5514 6.39998 19.1982 6.39998V6.39998ZM11.2077 12.8H22.7496C23.991 12.8 24.9692 13.6814 24.9692 14.7999V22.7999C24.9692 23.9185 23.991 24.7999 22.7496 24.7999H18.3104V21.1999C18.3129 21.0393 18.2797 20.8799 18.2126 20.731C18.1455 20.5822 18.046 20.4471 17.9198 20.3336C17.7937 20.22 17.6436 20.1305 17.4783 20.0702C17.3131 20.01 17.1361 19.9802 16.9578 19.9827C16.6049 19.9877 16.2686 20.1187 16.0228 20.3469C15.777 20.5751 15.6418 20.8819 15.6469 21.1999V24.7999H11.2077C9.96631 24.7999 8.98812 23.9185 8.98812 22.7999V14.7999C8.98812 13.6814 9.96631 12.8 11.2077 12.8ZM13.8712 14.3999C13.6947 14.3977 13.5195 14.4271 13.3558 14.4864C13.192 14.5457 13.043 14.6337 12.9173 14.7454C12.7916 14.857 12.6918 14.9901 12.6237 15.1368C12.5556 15.2835 12.5205 15.4409 12.5205 15.5999C12.5205 15.759 12.5556 15.9164 12.6237 16.0631C12.6918 16.2098 12.7916 16.3429 12.9173 16.4545C13.043 16.5662 13.192 16.6542 13.3558 16.7135C13.5195 16.7728 13.6947 16.8022 13.8712 16.7999H20.0861C20.2625 16.8022 20.4377 16.7728 20.6015 16.7135C20.7653 16.6542 20.9143 16.5662 21.04 16.4545C21.1657 16.3429 21.2655 16.2098 21.3336 16.0631C21.4017 15.9164 21.4368 15.759 21.4368 15.5999C21.4368 15.4409 21.4017 15.2835 21.3336 15.1368C21.2655 14.9901 21.1657 14.857 21.04 14.7454C20.9143 14.6337 20.7653 14.5457 20.6015 14.4864C20.4377 14.4271 20.2625 14.3977 20.0861 14.3999H13.8712Z" fill="#8257E6"/>
</svg>
